<?xml version="1.0" standalone="no"?>
<!DOCTYPE svg PUBLIC "-//W3C//DTD SVG 20010904//EN"
 "http://www.w3.org/TR/2001/REC-SVG-20010904/DTD/svg10.dtd">
<svg version="1.0" xmlns="http://www.w3.org/2000/svg"
 width="500.000000pt" height="500.000000pt" viewBox="0 0 500.000000 500.000000"
 preserveAspectRatio="xMidYMid meet">

<g transform="translate(0.000000,500.000000) scale(0.100000,-0.100000)"
fill="#000000" stroke="none">
<path d="M2350 4870 c-652 -41 -1250 -407 -1606 -983 -143 -230 -237 -496
-280 -787 -20 -143 -15 -465 11 -605 129 -709 566 -1267 1215 -1551 l75 -33 5
-370 5 -369 25 -27 c14 -15 36 -32 50 -37 15 -6 160 -9 364 -8 487 2 451 -29
451 384 l0 301 73 7 c40 4 125 19 190 33 839 186 1474 866 1597 1709 21 148
21 422 0 574 -64 444 -257 837 -566 1153 -427 434 -991 648 -1609 609z m338
-131 c846 -92 1521 -704 1692 -1534 96 -463 6 -981 -238 -1373 -110 -177 -277
-369 -427 -492 -212 -173 -480 -309 -743 -375 -115 -29 -304 -58 -313 -47 -3
4 -13 332 -22 729 -17 805 -12 760 -87 802 -36 20 -51 21 -356 21 -357 0 -366
-2 -412 -70 l-24 -35 5 -658 5 -658 -22 7 c-11 4 -64 28 -116 54 -378 190
-690 512 -876 904 -169 357 -223 806 -143 1196 154 753 750 1349 1500 1499
196 40 396 50 577 30z"/>
<path d="M2980 3859 c-57 -26 -77 -44 -102 -93 -27 -52 -22 -139 11 -184 77
-109 266 -121 355 -22 30 33 56 91 56 125 0 32 -25 90 -53 122 -63 72 -175 94
-267 52z"/>
<path d="M2862 3377 l-22 -24 2 -576 3 -576 23 -23 c22 -23 26 -23 210 -20
188 4 214 8 231 40 6 11 5 228 -4 592 -13 573 -13 574 -35 592 -20 16 -44 18
-204 18 -178 0 -183 -1 -204 -23z"/>
<path d="M2100 3364 c-128 -34 -220 -106 -272 -212 -30 -60 -33 -75 -33 -152
1 -106 31 -174 105 -244 213 -199 575 -146 697 102 25 50 28 68 28 147 -1 77
-5 98 -28 145 -84 175 -299 267 -497 214z"/>
</g>
</svg>
